<?xml version="1.0" encoding="UTF-8"?>
<svg xmlns="http://www.w3.org/2000/svg" xmlns:xlink="http://www.w3.org/1999/xlink" width="200pt" height="300pt" viewBox="0 0 200 300" version="1.1">
<g id="surface1">
<path style=" stroke:none;fill-rule:nonzero;fill:rgb(40%,20%,0%);fill-opacity:1;" d="M 190 150 C 190 199.707031 149.707031 240 100 240 C 50.292969 240 10 199.707031 10 150 C 10 100.292969 50.292969 60 100 60 C 149.707031 60 190 100.292969 190 150 "/>
<path style=" stroke:none;fill-rule:nonzero;fill:rgb(80%,40%,100%);fill-opacity:1;" d="M 24.839844 165 L 24.839844 155.992188 L 33.851563 155.992188 L 33.851563 165 Z M 54.59375 118.375 L 54.765625 125.933594 C 54.941406 133.699219 55.277344 139.074219 55.777344 142.0625 C 58.878906 142.066406 61.679688 141.289063 64.171875 139.734375 C 66.660156 138.179688 67.902344 135.234375 67.90625 130.898438 L 68.828125 118.375 L 77.265625 118.375 L 76.210938 133.050781 C 76.035156 135.546875 75.757813 137.4375 75.375 138.722656 C 74.992188 140.015625 74.207031 141.378906 73.023438 142.808594 C 71.835938 144.246094 69.960938 145.496094 67.398438 146.566406 C 64.832031 147.636719 61.382813 148.347656 57.054688 148.695313 C 57.78125 151.863281 59.480469 154.398438 62.148438 156.300781 C 64.8125 158.207031 68.09375 159.160156 71.992188 159.15625 C 75.59375 159.160156 78.683594 158.300781 81.265625 156.585938 C 83.839844 154.875 85.746094 152.664063 86.976563 149.949219 C 88.207031 147.242188 89.027344 143.382813 89.441406 138.367188 L 91.328125 118.375 L 99.765625 118.375 L 98.1875 135.644531 C 97.566406 142.121094 96.46875 147.511719 94.886719 151.816406 C 93.304688 156.125 90.558594 159.613281 86.648438 162.277344 C 82.734375 164.941406 77.6875 166.269531 71.511719 166.273438 C 66.03125 166.269531 61.4375 164.949219 57.734375 162.296875 C 54.023438 159.648438 51.253906 155.859375 49.425781 150.9375 C 47.589844 146.015625 46.675781 139.453125 46.679688 131.25 L 46.066406 118.375 Z M 112.335938 165 L 112.335938 155.992188 L 121.347656 155.992188 L 121.347656 165 Z M 157.558594 134.851563 L 157.558594 149.179688 L 161.863281 165 L 153.644531 165 L 150.4375 153.574219 C 146.832031 153.574219 143.828125 155.757813 141.429688 160.121094 L 138.835938 165 L 130.265625 165 L 133.957031 157.792969 C 136.152344 153.515625 138.703125 150.710938 141.605469 149.378906 C 144.503906 148.046875 147.023438 147.382813 149.164063 147.378906 L 149.164063 135.117188 C 149.160156 132.597656 148.976563 130.6875 148.613281 129.382813 C 148.246094 128.082031 147.433594 127.035156 146.175781 126.242188 C 144.914063 125.453125 143.242188 125.058594 141.164063 125.054688 C 139.375 125.058594 137.78125 125.203125 136.375 125.492188 L 135.761719 118.8125 C 137.71875 118.171875 140.121094 117.851563 142.964844 117.847656 C 146.945313 117.851563 149.992188 118.597656 152.105469 120.089844 C 154.210938 121.585938 155.648438 123.421875 156.414063 125.601563 C 157.175781 127.785156 157.554688 130.871094 157.558594 134.851563 Z M 165.070313 165 "/>
</g>
</svg>
